<?xml version="1.0" standalone="no"?>
<!DOCTYPE svg PUBLIC "-//W3C//DTD SVG 20010904//EN"
 "http://www.w3.org/TR/2001/REC-SVG-20010904/DTD/svg10.dtd">
<svg version="1.0" xmlns="http://www.w3.org/2000/svg"
 width="330.000000pt" height="150.000000pt" viewBox="0 0 330.000000 150.000000"
 preserveAspectRatio="xMidYMid meet">

<g transform="translate(0.000000,150.000000) scale(0.100000,-0.100000)"
fill="#ff7be8" stroke="none">
<path d="M603 941 c-33 -43 -66 -89 -74 -101 -15 -23 -15 -22 -64 39 -28 33
-53 61 -57 61 -3 0 -5 -15 -3 -32 l4 -33 -27 33 c-15 18 -32 32 -39 32 -12 0
-6 -37 10 -58 5 -7 7 -15 4 -18 -3 -3 -18 11 -34 30 -15 20 -31 36 -35 36 -20
0 -5 -53 23 -85 36 -41 29 -45 -17 -10 -84 64 -51 -9 40 -88 l60 -52 -39 -5
c-47 -6 -57 -27 -18 -36 15 -4 54 -24 85 -46 31 -21 60 -38 64 -38 11 0 -136
100 -149 101 -7 1 4 4 23 8 23 4 40 2 49 -7 7 -7 16 -10 20 -7 3 4 -32 42 -79
85 -93 86 -95 102 -6 40 31 -22 59 -40 62 -40 4 0 -22 32 -56 70 -34 39 -56
70 -48 70 8 0 25 -11 38 -25 13 -14 25 -23 27 -21 2 2 22 -15 45 -38 50 -52
39 -28 -20 42 -62 72 -43 80 24 10 59 -64 78 -76 41 -25 -65 87 -53 105 16 22
l45 -55 41 63 c54 81 89 120 101 112 6 -4 10 5 10 19 0 14 -2 26 -4 26 -3 0
-31 -35 -63 -79z"/>
<path d="M695 985 c-15 -19 -31 -33 -36 -32 -5 1 -20 -17 -34 -40 -15 -24 -21
-43 -16 -43 6 0 11 3 11 8 1 14 88 107 95 100 4 -4 -14 -34 -40 -68 -26 -34
-45 -63 -43 -65 2 -3 31 22 63 55 74 75 104 80 44 8 -25 -29 -51 -62 -59 -72
-14 -18 -14 -19 7 -8 12 7 29 22 37 34 9 12 16 19 16 14 0 -4 12 2 27 13 56
44 34 7 -40 -67 -76 -77 -91 -97 -62 -86 8 3 13 9 12 12 -1 4 27 34 62 67 54
52 91 100 91 120 0 14 -28 2 -57 -27 -18 -18 -33 -27 -33 -21 0 6 7 16 16 24
22 18 46 68 42 87 -3 13 -14 7 -46 -28 -45 -48 -51 -49 -27 -4 31 60 11 73
-30 19z"/>
<path d="M1034 785 c0 -132 2 -185 3 -117 2 68 2 176 0 240 -1 64 -3 9 -3
-123z"/>
<path d="M505 950 c-3 -5 -12 -7 -20 -3 -22 8 -18 -11 5 -32 22 -20 22 -20 38
11 15 28 -7 50 -23 24z"/>
<path d="M1254 810 c0 -80 1 -115 3 -77 l4 67 99 0 99 0 4 -67 c2 -38 3 -3 3
77 0 80 -1 115 -3 78 l-4 -68 -99 0 -99 0 -4 68 c-2 37 -3 2 -3 -78z"/>
<path d="M2684 939 c-10 -17 13 -36 27 -22 12 12 4 33 -11 33 -5 0 -12 -5 -16
-11z"/>
<path d="M2770 816 c0 -118 1 -126 22 -140 25 -18 38 -20 38 -7 0 5 -9 11 -20
14 -19 5 -20 14 -20 131 0 77 -4 126 -10 126 -6 0 -10 -48 -10 -124z"/>
<path d="M1558 843 c-34 -9 -17 -19 30 -19 41 1 47 -2 50 -21 3 -18 -2 -23
-18 -23 -11 0 -36 -7 -55 -14 -29 -12 -35 -20 -35 -44 0 -36 30 -65 62 -59 22
4 22 4 -2 6 -76 4 -61 91 16 91 33 0 34 -1 34 -39 0 -22 -5 -42 -12 -44 -8 -3
-6 -6 5 -6 15 -1 17 9 17 79 0 68 -3 81 -19 90 -20 10 -42 11 -73 3z"/>
<path d="M1733 843 c-23 -4 -23 -6 -21 -146 1 -78 3 -117 5 -86 l4 57 50 -2
c44 -1 54 3 75 27 36 42 33 97 -7 131 -29 25 -53 29 -106 19z m102 -38 c62
-61 -13 -152 -99 -119 -12 5 -16 21 -16 68 0 35 3 66 7 69 3 4 24 7 45 7 28 0
46 -7 63 -25z"/>
<path d="M1948 843 l-28 -4 0 -140 c0 -86 4 -139 10 -139 6 0 10 25 10 55 l0
56 34 -6 c73 -14 129 51 105 122 -6 20 -22 39 -39 48 -29 15 -40 16 -92 8z
m96 -34 c19 -15 26 -30 26 -54 0 -49 -33 -77 -85 -73 l-40 3 -3 59 c-2 32 -1
65 2 72 8 21 70 17 100 -7z"/>
<path d="M2120 845 c0 -3 16 -37 35 -75 19 -38 35 -76 35 -84 0 -8 -18 -34
-40 -57 -44 -47 -47 -61 -6 -28 23 18 99 154 127 226 17 45 -6 15 -36 -46 -16
-34 -32 -61 -35 -61 -3 0 -19 27 -35 61 -26 54 -45 81 -45 64z"/>
<path d="M2338 843 l-28 -4 2 -92 2 -92 3 80 c3 47 9 82 16 87 22 14 84 9 98
-8 8 -10 17 -49 20 -88 l6 -71 1 77 c2 72 0 78 -24 97 -26 20 -40 22 -96 14z"/>
<path d="M2538 843 c-34 -9 -17 -19 30 -19 40 1 47 -2 50 -20 3 -18 -4 -22
-37 -28 -22 -3 -47 -13 -55 -22 -35 -34 -6 -95 45 -93 21 1 20 2 -8 10 -64 19
-46 89 24 89 32 0 33 -1 33 -39 0 -22 -5 -42 -12 -44 -7 -3 -3 -6 10 -6 21 -1
22 3 22 69 0 95 -27 123 -102 103z"/>
<path d="M2697 843 c-11 -11 -8 -183 3 -183 6 0 10 38 10 95 0 95 -1 101 -13
88z"/>
<path d="M2883 840 c-26 -11 -39 -46 -23 -65 6 -7 33 -19 60 -25 54 -13 68
-31 43 -56 -12 -12 -28 -15 -60 -11 -50 5 -59 -9 -10 -18 41 -8 83 8 92 35 9
29 -10 48 -61 61 -56 14 -71 31 -48 54 12 12 29 16 56 13 39 -4 51 5 22 16
-21 8 -44 7 -71 -4z"/>
<path d="M492 765 c-7 -14 -12 -31 -12 -38 1 -7 7 3 16 22 17 39 13 54 -4 16z"/>
<path d="M728 763 c21 -4 20 -7 -21 -38 -24 -18 -61 -45 -82 -59 -21 -14 -33
-26 -28 -26 5 0 34 17 64 38 30 21 69 44 87 51 30 12 31 15 15 27 -10 7 -27
13 -38 12 -17 -1 -16 -1 3 -5z"/>
<path d="M737 663 c-23 -26 -22 -40 4 -48 28 -9 32 -3 22 35 -8 31 -9 31 -26
13z"/>
<path d="M350 595 c-7 -8 -20 -15 -29 -15 -13 -1 -13 -3 3 -15 40 -31 73 -7
47 33 -6 10 -10 10 -21 -3z"/>
</g>
</svg>
